# xmcd
#
# Track frame offsets:
# 150
# 13848
# 30283
# 42978
# 56816
# 69307
# 83582
# 104180
# 128904
# 158039
# 171006
# 189882
# 203875
# 216416
# 231375
# 247706
# 262889
# 278956
# 291720
# 305258
# 321560
# 334660
# 344114
#
# Disc length: 4651 seconds
#
# Revision: 0
# Processed by: cddbd v1.5PL3 Copyright (c) Steve Scherf et al.
# Submitted via: Audion 3.0.2 (http://www.panic.com/audion/)
#
DISCID=5d122917
DTITLE=Turk Murphy Jazz Mand - Wildman Blues
DYEAR=1900
DGENRE=
TTITLE0=Big Fat Ham
TTITLE1=Sweet Substitute
TTITLE2=Bill Bailey
TTITLE3=Sister Kate
TTITLE4=Mandy
TTITLE5=Tom Cat Blues
TTITLE6=Wildman Blues
TTITLE7=The Hip Shooting of Dan McGrew
TTITLE8=The Hip Mahatma
TTITLE9=Swipesy Cakewalk
TTITLE10=Riverside Blues
TTITLE11=At a Georgia Camp Neeting
TTITLE12=Ballin' the Jack
TTITLE13=Maple Leaf Rag
TTITLE14=Skid-dat-de-dat
TTITLE15=Smokey Mokes
TTITLE16=Mamphis Blues
TTITLE17=Climax Rag
TTITLE18=Saten's Cakewalk
TTITLE19=Wedding Cakewalk
TTITLE20=Silver Fox Rag
TTITLE21=Alligator King
TTITLE22=Penny Candy Man
EXTD=
EXTT0=
EXTT1=
EXTT2=
EXTT3=
EXTT4=
EXTT5=
EXTT6=
EXTT7=
EXTT8=
EXTT9=
EXTT10=
EXTT11=
EXTT12=
EXTT13=
EXTT14=
EXTT15=
EXTT16=
EXTT17=
EXTT18=
EXTT19=
EXTT20=
EXTT21=
EXTT22=
PLAYORDER=
